<?xml version="1.0" encoding="UTF-8" standalone="no"?>
<!-- Created with Inkscape (http://www.inkscape.org/) -->

<svg
   width="203.50996mm"
   height="82.538338mm"
   viewBox="0 0 203.50996 82.538338"
   version="1.1"
   id="svg1"
   xml:space="preserve"
   inkscape:version="1.4.4 (dcaf3e7, 2026-05-05)"
   sodipodi:docname="LIV CONSULTORIA.svg"
   xmlns:inkscape="http://www.inkscape.org/namespaces/inkscape"
   xmlns:sodipodi="http://sodipodi.sourceforge.net/DTD/sodipodi-0.dtd"
   xmlns="http://www.w3.org/2000/svg"
   xmlns:svg="http://www.w3.org/2000/svg"><sodipodi:namedview
     id="namedview1"
     pagecolor="#ffffff"
     bordercolor="#000000"
     borderopacity="0.25"
     inkscape:showpageshadow="2"
     inkscape:pageopacity="0.0"
     inkscape:pagecheckerboard="0"
     inkscape:deskcolor="#d1d1d1"
     inkscape:document-units="mm"
     inkscape:zoom="0.83388093"
     inkscape:cx="305.19945"
     inkscape:cy="221.25461"
     inkscape:window-width="2560"
     inkscape:window-height="1369"
     inkscape:window-x="1072"
     inkscape:window-y="554"
     inkscape:window-maximized="1"
     inkscape:current-layer="layer1" /><defs
     id="defs1"><clipPath
       id="clip0"><rect
         x="-3"
         y="473"
         width="1769"
         height="1533"
         id="rect1" /></clipPath></defs><g
     inkscape:label="Camada 1"
     inkscape:groupmode="layer"
     id="layer1"
     transform="translate(-36.350141,-40.183154)"><g
       id="g3"
       transform="translate(-2.2210405,-2.8556235)"><path
         style="fill:#000000;stroke-width:0.446092"
         d="m 142.11089,80.289111 0.0298,-23.509482 3.83592,-2.685612 c 2.10977,-1.477091 3.87577,-2.688892 3.92445,-2.692913 0.0486,-0.0041 0.0886,11.013393 0.0886,24.483115 v 24.490411 l 11.86604,0.0301 11.86602,0.0301 -2.43466,1.68191 -2.43467,1.68191 h -13.38561 -13.38563 z m 39.27437,0.09209 v -23.41733 l 3.85553,-2.755542 c 2.12054,-1.515553 3.89983,-2.77326 3.95396,-2.794898 0.0541,-0.02163 0.0985,11.756157 0.0985,26.172888 v 26.212211 h -3.95397 -3.95396 z m 36.0812,22.679659 c -0.16323,-0.40572 -4.49915,-11.092167 -9.63536,-23.747651 -5.13623,-12.655484 -9.31506,-23.071344 -9.28627,-23.146371 0.0287,-0.07503 1.31834,-1.107785 2.86567,-2.295033 1.54734,-1.18726 2.88377,-2.213814 2.96986,-2.281245 0.225,-0.176241 -0.38226,-1.642294 8.95295,21.614276 6.20746,15.464506 8.62382,21.35973 8.70332,21.23369 0.0605,-0.09595 3.67293,-9.568003 8.02752,-21.048992 l 7.91747,-20.874507 2.04972,-0.03239 2.04974,-0.03239 -0.0594,0.209402 c -0.0429,0.150805 -19.20984,49.897041 -19.64674,50.991271 -0.0442,0.11089 -0.62429,0.14754 -2.33529,0.14754 h -2.27639 z"
         id="path1" /><path
         style="fill:#ad141a;fill-opacity:1;stroke-width:0.132568"
         d="m 146.32703,117.12491 c -6.07288,-0.68596 -5.45124,-9.68718 0.71451,-10.34595 l 0.3987,-0.0426 0.42132,0.04 c 1.0323,0.098 2.25927,0.63656 2.79011,1.22466 l 0.063,0.0698 -0.66632,0.4483 -0.66632,0.44829 -0.22592,-0.21132 c -1.09141,-1.02097 -2.87066,-1.45095 -4.24606,-1.02613 l -0.23312,0.0719 -0.15115,0.19258 c -2.47643,3.15523 -0.45856,7.99062 3.50708,8.404 l 0.39954,0.0416 0.42925,-0.0411 c 0.51277,-0.0491 0.96393,-0.16516 1.46125,-0.37594 0.40976,-0.17367 0.45211,-0.17793 0.25861,-0.026 -1.06868,0.83889 -2.7848,1.29383 -4.25447,1.12783 z m 10.17181,0.018 c -2.24575,-0.26705 -3.84168,-1.74112 -4.31993,-3.99007 l -0.0757,-0.35594 -0.003,-0.63136 -0.003,-0.63135 0.0638,-0.29813 c 0.45024,-2.10221 2.30617,-3.93142 4.45424,-4.39012 l 0.35736,-0.0763 0.52613,-7.6e-4 c 3.83086,-0.005 6.14751,4.45483 4.02429,7.7466 -1.09387,1.6959 -3.27301,2.83551 -5.02393,2.62732 z m 2.20943,-0.82259 c 0.43722,-0.0449 0.89355,-0.18171 1.02932,-0.30866 0.5948,-0.55622 1.08081,-1.72319 1.18617,-2.84815 l 0.0431,-0.4605 -0.0424,-0.46865 c -0.24581,-2.7216 -2.36049,-4.68607 -4.95186,-4.6001 l -0.54366,0.0181 -0.3493,0.0905 -0.3493,0.0906 -0.081,0.0966 c -0.71597,0.85345 -1.11875,1.97473 -1.15609,3.21832 l -0.019,0.63135 0.0722,0.42091 c 0.44619,2.59774 2.67301,4.37506 5.16164,4.11968 z m 28.27092,0.81981 c -1.87963,-0.13562 -3.15204,-1.26894 -3.53119,-3.14521 l -0.0579,-0.28605 -0.0137,-2.86555 -0.0138,-2.86556 0.75704,-0.53674 c 0.41637,-0.29521 0.77234,-0.54201 0.79107,-0.54843 0.0218,-0.007 0.0341,1.14956 0.0342,3.22692 l 2e-4,3.23861 0.0516,0.34203 c 0.33669,2.23364 2.58461,3.25186 4.89251,2.21614 l 0.21158,-0.095 v -4.04148 -4.0415 l 0.61389,-0.42581 c 0.33764,-0.23419 0.62223,-0.4258 0.63244,-0.4258 0.0102,0 0.0138,1.64547 0.008,3.6566 l -0.0106,3.65659 -0.0796,0.26306 c -0.51891,1.71455 -2.29039,2.82112 -4.28579,2.67715 z m 25.56984,0.003 c -2.24575,-0.26702 -3.84168,-1.7411 -4.31993,-3.99007 l -0.0757,-0.35593 -0.003,-0.63135 -0.003,-0.63136 0.0638,-0.29813 c 0.45024,-2.10222 2.30617,-3.9314 4.45424,-4.39011 l 0.35736,-0.0764 0.52613,-7.7e-4 c 3.83086,-0.005 6.14751,4.45484 4.02429,7.7466 -1.09387,1.69591 -3.27301,2.83552 -5.02393,2.62731 z m 2.20943,-0.82259 c 0.43721,-0.0449 0.89356,-0.18171 1.02931,-0.30865 0.5948,-0.55622 1.08082,-1.7232 1.18618,-2.84816 l 0.0431,-0.4605 -0.0423,-0.46865 c -0.24581,-2.72159 -2.3605,-4.68604 -4.95185,-4.60008 l -0.54367,0.0181 -0.3493,0.0906 -0.3493,0.0905 -0.081,0.0967 c -0.71597,0.85344 -1.11875,1.97473 -1.1561,3.2183 l -0.019,0.63136 0.0723,0.42091 c 0.44617,2.59774 2.673,4.37506 5.16164,4.11968 z m -38.14399,0.73556 c -0.72539,-0.099 -1.47266,-0.47092 -1.79139,-0.89174 l -0.0798,-0.10522 0.57531,-0.4108 0.5753,-0.4108 0.17882,0.18909 c 0.39341,0.41597 1.06001,0.77501 1.6749,0.90212 l 0.33992,0.0703 0.36829,-0.0162 c 0.20255,-0.009 0.47661,-0.0444 0.60899,-0.0788 l 0.2407,-0.0625 0.15572,-0.21154 c 0.21712,-0.29493 0.39103,-0.61576 0.49346,-0.91028 l 0.0872,-0.25078 -0.0139,-0.31882 -0.014,-0.31883 -0.10049,-0.2054 c -0.23499,-0.4803 -0.81349,-0.91411 -1.94877,-1.46137 -1.37015,-0.66049 -1.78459,-0.9105 -2.25714,-1.36164 -1.07737,-1.02856 -0.99261,-2.06142 0.26641,-3.24662 1.4907,-1.40326 3.19226,-1.68157 4.34078,-0.70996 0.35312,0.29873 0.37265,0.26844 -0.61578,0.95477 l -0.17733,0.12315 -0.20849,-0.20176 c -0.23598,-0.22832 -0.5762,-0.41895 -0.96261,-0.53937 l -0.26307,-0.0819 -0.52613,-1.4e-4 -0.52613,-1.3e-4 -0.25177,0.0792 -0.25178,0.0792 -0.14396,0.16636 c -0.0792,0.0915 -0.20248,0.28359 -0.27399,0.42686 l -0.13001,0.2605 -0.0128,0.25336 c -0.0498,0.98657 0.38601,1.41215 2.57909,2.51855 2.53574,1.27925 3.1513,2.20733 2.41061,3.63445 -0.69712,1.34317 -2.75336,2.35415 -4.34628,2.1369 z m -12.32029,-4.70336 0.009,-4.67097 0.60674,-0.43248 c 0.3337,-0.23786 0.62066,-0.43248 0.6377,-0.43248 0.0169,0 1.36185,1.79439 2.98848,3.98753 l 2.95752,3.98751 0.009,-3.96998 0.009,-3.96998 h 0.43829 0.43829 v 5.08686 5.08688 l -0.49969,-0.01 -0.49969,-0.01 -3.07764,-4.03204 c -1.6927,-2.21765 -3.10147,-4.0559 -3.13059,-4.08503 l -0.053,-0.0529 v 4.09378 4.09377 h -0.42104 -0.42102 z m 29.95422,0.0189 0.009,-4.65211 0.75411,-0.52418 0.75412,-0.52417 0.009,4.84307 0.009,4.84306 h 2.35555 2.35554 l -0.48204,0.33322 -0.48205,0.33321 h -2.6454 -2.64542 z m 8.54972,-0.10028 v -4.75238 l -1.84734,-0.009 -1.84734,-0.009 0.44594,-0.32458 0.44592,-0.32461 4.03483,0.009 4.03482,0.009 -0.44895,0.32445 -0.44897,0.32444 h -1.39526 -1.39527 v 4.75269 4.7527 h -0.78918 -0.7892 z m 17.54624,0.22043 0.009,-4.53196 0.77166,-0.55295 0.77165,-0.55295 1.22764,-2.1e-4 c 1.9856,-7.7e-4 2.65041,0.1392 3.3644,0.70759 1.61151,1.28291 0.98926,3.56209 -1.28302,4.69939 l -0.27511,0.13771 0.0404,0.0767 c 0.0386,0.0734 2.22478,3.76783 2.54131,4.29451 l 0.15281,0.2543 -0.77967,-1.2e-4 -0.77966,-1.2e-4 -1.34773,-2.2447 -1.34772,-2.24469 h -0.76555 -0.76556 v 2.24481 2.24482 h -0.7718 -0.77177 z m 5.0389,-0.86086 c 0.18476,-0.31214 0.33215,-0.66502 0.42951,-1.02835 l 0.0793,-0.29574 -9.1e-4,-0.47351 -9.1e-4,-0.47352 -0.0929,-0.28059 c -0.24576,-0.7425 -0.78699,-1.25775 -1.55029,-1.47586 l -0.21046,-0.0602 -1.07856,-0.0155 -1.07856,-0.0155 v 2.17771 2.17771 h 1.68204 1.68205 z m 4.53663,0.75583 0.009,-4.63698 0.70149,-0.50356 c 0.38585,-0.27696 0.72913,-0.519 0.7629,-0.53785 l 0.0614,-0.0343 v 5.17482 5.17484 h -0.77177 -0.77179 z m 3.53396,4.6224 c 0,-0.0227 3.60827,-9.49843 3.61995,-9.50648 0.006,-0.004 0.27637,-0.19293 0.60151,-0.41999 0.32514,-0.22706 0.60407,-0.3995 0.61984,-0.38318 0.0158,0.0163 0.85734,2.30253 1.87015,5.0805 1.0128,2.77796 1.85819,5.09452 1.87864,5.14794 l 0.0372,0.0971 -0.79146,-0.01 -0.79147,-0.009 -0.56984,-1.56085 -0.56984,-1.56086 -1.96154,-0.009 -1.96152,-0.009 -0.59174,1.57866 -0.59174,1.57869 h -0.39906 c -0.21949,0 -0.39905,-0.006 -0.39905,-0.0145 z m 5.64711,-3.82704 c 0,-0.0389 -1.655,-4.5601 -1.67746,-4.58265 -0.0167,-0.0168 -1.46177,3.81838 -1.71718,4.55723 l -0.0151,0.0439 h 1.70489 c 0.9377,0 1.70491,-0.008 1.70491,-0.0184 z"
         id="path2" /></g><g
       style="overflow:hidden"
       id="g2"
       transform="matrix(0.05386799,0,0,0.05386799,36.306461,40.16233)"><g
         clip-path="url(#clip0)"
         transform="translate(3,-473)"
         id="g7"><path
           d="M 1021.19,1.426e-4 510.809,2.85199e-4 0.978804,1.426e-4 0.978662,0 V 1.426e-4 L 1.426e-4,0.744085 179.108,308.529 h 436.775 v -0.185 h 261.694 z"
           fill="#b0b1b3"
           fill-rule="evenodd"
           transform="matrix(0.866025,0.5,0.5,-0.866025,532.102,1494.44)"
           id="path1-7" /><path
           d="m 569.367,1473.09 850.483,491.02 -3.65,41.51 -442.002,-255.19 -441.526,-254.92 -0.476,-1.13 z"
           fill="#404041"
           fill-rule="evenodd"
           id="path2-1" /><path
           d="M 1530,1.4263e-4 1019.82,2.85261e-4 510.183,1.4263e-4 V 0 1.4263e-4 h -0.549 L 255.092,442.097 0,884.193 338.708,914 469.505,687.318 l 0.16,0.092 218.578,-378.815 h 436.607 v -0.185 h 261.59 z"
           fill="#ad141a"
           fill-rule="evenodd"
           transform="matrix(0,-1,-1,0,1230,2004)"
           id="path3" /><path
           d="M 1530.59,1.426e-4 1020.21,2.85199e-4 510.38,1.426e-4 V 0 1.426e-4 h -0.55 L 255.19,442.002 0,884.004 l 338.839,29.8 130.847,-226.634 0.161,0.093 218.662,-378.734 h 436.771 v -0.185 h 261.7 z"
           fill="#ff2e17"
           fill-rule="evenodd"
           transform="matrix(-0.866025,0.5,0.5,0.866025,1323.34,634.406)"
           id="path4" /><path
           d="M 722.75,307.459 546.542,1.19028 510.38,1.426e-4 V 0 1.426e-4 h -0.55 L 255.19,442.002 0,884.004 l 338.839,29.8 130.847,-226.634 0.16,0.093 218.663,-378.734 z"
           fill="#b0b1b3"
           fill-rule="evenodd"
           transform="matrix(0.866025,0.5,0.5,-0.866025,90.5002,1239.28)"
           id="path5" /><path
           d="m 570.1084,491.42064 -4e-5,1017.27236 -6.31148,4.9072 -31.91227,-17.0898 -7e-5,1e-4 7e-5,-1e-4 -0.47631,-0.2757 0.47632,-511.28616 8e-5,-511.56196 z"
           fill="#404041"
           fill-rule="evenodd"
           id="path6"
           style="stroke-width:1.00116" /><path
           d="m 554.60168,1464.79 c 0.48895,0.27 1.08992,1.06 1.5776,1.32 15.43304,8.83 30.75406,17.14 46.18682,25.96 l -34.08682,24.03 c -8.03497,-4.35 -25.66613,-13.89 -31.13638,-16.94 -0.56134,-0.44 -1.12269,-0.88 -1.68403,-1.32 z"
           fill="#404041"
           fill-rule="evenodd"
           id="path7"
           style="stroke-width:0.997316" /></g></g></g></svg>
